<?xml version="1.0" encoding="UTF-8" standalone="no"?>
<svg
   width="900px"
   height="900px"
   viewBox="0 0 900 900"
   version="1.1"
   xml:space="preserve"
   id="SVGRoot"
   inkscape:version="1.4.2 (f4327f4, 2025-05-13)"
   sodipodi:docname="Light Chronos Logo.svg"
   inkscape:export-filename="Chronos Logo.png"
   inkscape:export-xdpi="300"
   inkscape:export-ydpi="300"
   xmlns:inkscape="http://www.inkscape.org/namespaces/inkscape"
   xmlns:sodipodi="http://sodipodi.sourceforge.net/DTD/sodipodi-0.dtd"
   xmlns:xlink="http://www.w3.org/1999/xlink"
   xmlns="http://www.w3.org/2000/svg"
   xmlns:svg="http://www.w3.org/2000/svg"
   xmlns:rdf="http://www.w3.org/1999/02/22-rdf-syntax-ns#"
   xmlns:cc="http://creativecommons.org/ns#"
   xmlns:dc="http://purl.org/dc/elements/1.1/"><title
   id="title4">Light Chronos</title><defs
   id="defs2"><linearGradient
     id="linearGradient5"
     inkscape:collect="always"><stop
       style="stop-color:#ffffff;stop-opacity:1;"
       offset="0"
       id="stop5" /><stop
       style="stop-color:#ffffff;stop-opacity:0;"
       offset="1"
       id="stop6" /></linearGradient><rect
     x="176.42276"
     y="382.11382"
     width="765.04065"
     height="234.95935"
     id="rect5" /><rect
     x="197"
     y="257"
     width="530"
     height="179"
     id="rect4" /><linearGradient
     inkscape:collect="always"
     xlink:href="#linearGradient5"
     id="linearGradient6"
     x1="261.92973"
     y1="446.62099"
     x2="855.16171"
     y2="446.62099"
     gradientUnits="userSpaceOnUse" /></defs>
<sodipodi:namedview
   pagecolor="#a9a9a9"
   bordercolor="#292929"
   borderopacity="1"
   inkscape:showpageshadow="2"
   inkscape:pageopacity="0.0"
   inkscape:pagecheckerboard="0"
   inkscape:deskcolor="#232323"
   id="namedview1"
   inkscape:zoom="1.23"
   inkscape:cx="426.42276"
   inkscape:cy="443.08943"
   inkscape:window-width="2560"
   inkscape:window-height="1374"
   inkscape:window-x="-9"
   inkscape:window-y="28"
   inkscape:window-maximized="1"
   inkscape:current-layer="SVGRoot" />
<style
   type="text/css"
   id="style1">
g.prefab path {
  vector-effect:non-scaling-stroke;
  -inkscape-stroke:hairline;
  fill: none;
  fill-opacity: 1;
  stroke-opacity: 1;
  stroke: #00349c;
}
</style>
<g
   inkscape:label="Target"
   style="font-variation-settings:'opsz' 144;display:none;fill:#ffffff;stroke:#000000;stroke-width:5;stroke-dasharray:none"
   class="prefab"
   id="g2"
   transform="translate(0.1464475,-1.5e-5)"
   sodipodi:insensitive="true">
  <path
   d="M 849.53146,50.000002 H 49.707105 L 849.53146,850.00003 Z M 451.68747,50 H 850 V 850 H 451.68747 Z M 50.175632,450 H 849.99997 V 850 H 50.175632 Z m -10e-7,-399.999998 H 849.99998 L 50.175631,850.00003 Z"
   id="path1"
   style="font-variation-settings:'opsz' 144;stroke-width:5;stroke-dasharray:none" />
  <path
   d="M 450,50 A 400,400 0 0 0 50,450 400,400 0 0 0 450,850 400,400 0 0 0 850,450 400,400 0 0 0 450,50 Z m 0,100 A 300,300 0 0 1 750,450 300,300 0 0 1 450,750 300,300 0 0 1 150,450 300,300 0 0 1 450,150 Z m 0,100 A 200,200 0 0 0 250,450 200,200 0 0 0 450,650 200,200 0 0 0 650,450 200,200 0 0 0 450,250 Z m 0,100 A 100,100 0 0 1 550,450 100,100 0 0 1 450,550 100,100 0 0 1 350,450 100,100 0 0 1 450,350 Z"
   id="path2"
   style="font-variation-settings:'opsz' 144;stroke-width:5;stroke-dasharray:none" />
</g>
<metadata
   id="metadata4"><rdf:RDF><cc:Work
       rdf:about=""><dc:title>Light Chronos</dc:title></cc:Work></rdf:RDF></metadata><text
   xml:space="preserve"
   id="text5"
   style="font-style:normal;font-variant:normal;font-weight:normal;font-stretch:normal;font-size:113.333px;font-family:Fraunces;-inkscape-font-specification:'Fraunces, @opsz=144';font-variant-ligatures:normal;font-variant-caps:normal;font-variant-numeric:normal;font-variant-east-asian:normal;font-variation-settings:'opsz' 144;text-align:center;letter-spacing:10px;writing-mode:lr-tb;direction:ltr;white-space:pre;shape-inside:url(#rect5);display:inline;fill:#ffffff;fill-opacity:1;stroke:none;stroke-width:5;stroke-dasharray:none;stroke-opacity:1"
   inkscape:label="Chronos"
   transform="translate(-108.54572,3.3789854)"><tspan
     x="258.86991"
     y="486.17421"
     id="tspan4"><tspan
       style="font-weight:600;-inkscape-font-specification:'Fraunces Semi-Bold'"
       id="tspan3">CHRONOS</tspan></tspan></text><circle
   style="font-variation-settings:'opsz' 144;fill:none;stroke:#ffffff;stroke-width:4.44633;stroke-dasharray:none;stroke-opacity:1"
   id="path5"
   cx="452.00003"
   cy="450"
   r="226.29309"
   inkscape:label="Circle" /></svg>
